grf
version=1
nRows=18
nColumns=46
inDegrees=yes
endheader
time	ground_force_1_vx	ground_force_1_vy	ground_force_1_vz	ground_force_1_px	ground_force_1_py	ground_force_1_pz	ground_moment_1_mx	ground_moment_1_my	ground_moment_1_mz	ground_force_2_vx	ground_force_2_vy	ground_force_2_vz	ground_force_2_px	ground_force_2_py	ground_force_2_pz	ground_moment_2_mx	ground_moment_2_my	ground_moment_2_mz	ground_force_3_vx	ground_force_3_vy	ground_force_3_vz	ground_force_3_px	ground_force_3_py	ground_force_3_pz	ground_moment_3_mx	ground_moment_3_my	ground_moment_3_mz	ground_force_4_vx	ground_force_4_vy	ground_force_4_vz	ground_force_4_px	ground_force_4_py	ground_force_4_pz	ground_moment_4_mx	ground_moment_4_my	ground_moment_4_mz	ground_force_5_vx	ground_force_5_vy	ground_force_5_vz	ground_force_5_px	ground_force_5_py	ground_force_5_pz	ground_moment_5_mx	ground_moment_5_my	ground_moment_5_mz
1.522000	0.000000	0.000000	0.000000	0.000000	0.000000	0.000000	0.000000	0.000000	0.000000	0.000000	0.000000	0.000000	0.000000	0.000000	0.000000	0.000000	0.000000	0.000000	95.430594	231.795213	-8.715349	0.386831	0.000000	0.159295	0.000000	-0.602406	0.000000	-68.141176	387.129427	42.880225	0.918706	0.000000	0.244398	-0.000000	-0.652233	-0.000000	0.000000	0.000000	0.000000	0.000000	0.000000	0.000000	0.000000	0.000000	0.000000
1.523000	0.000000	0.000000	0.000000	0.000000	0.000000	0.000000	0.000000	0.000000	0.000000	0.000000	0.000000	0.000000	0.000000	0.000000	0.000000	0.000000	0.000000	0.000000	93.374535	223.793498	-8.993735	0.386311	0.000000	0.161242	0.000000	-0.592497	0.000000	-71.734344	392.554797	42.285557	0.922924	0.000000	0.243488	-0.000000	-0.680347	-0.000000	0.000000	0.000000	0.000000	0.000000	0.000000	0.000000	0.000000	0.000000	0.000000
1.524000	0.000000	0.000000	0.000000	0.000000	0.000000	0.000000	0.000000	0.000000	0.000000	0.000000	0.000000	0.000000	0.000000	0.000000	0.000000	0.000000	0.000000	0.000000	91.209916	215.714990	-9.240275	0.388357	0.000000	0.157667	0.000000	-0.582339	0.000000	-75.235714	397.896115	41.570247	0.924317	0.000000	0.244194	-0.000000	-0.706315	-0.000000	0.000000	0.000000	0.000000	0.000000	0.000000	0.000000	0.000000	0.000000	0.000000
1.525000	0.000000	0.000000	0.000000	0.000000	0.000000	0.000000	0.000000	0.000000	0.000000	0.000000	0.000000	0.000000	0.000000	0.000000	0.000000	0.000000	0.000000	0.000000	88.939982	207.574964	-9.453820	0.391386	0.000000	0.160393	0.000000	-0.571886	0.000000	-78.623988	403.183695	40.737773	0.927516	0.000000	0.244902	-0.000000	-0.729672	-0.000000	0.000000	0.000000	0.000000	0.000000	0.000000	0.000000	0.000000	0.000000	0.000000
1.526000	0.000000	0.000000	0.000000	0.000000	0.000000	0.000000	0.000000	0.000000	0.000000	0.000000	0.000000	0.000000	0.000000	0.000000	0.000000	0.000000	0.000000	0.000000	86.568602	199.389707	-9.633339	0.388014	0.000000	0.161376	0.000000	-0.561133	0.000000	-81.879125	408.443066	39.791737	0.926660	0.000000	0.244304	-0.000000	-0.749937	-0.000000	0.000000	0.000000	0.000000	0.000000	0.000000	0.000000	0.000000	0.000000	0.000000
1.527000	0.000000	0.000000	0.000000	0.000000	0.000000	0.000000	0.000000	0.000000	0.000000	0.000000	0.000000	0.000000	0.000000	0.000000	0.000000	0.000000	0.000000	0.000000	84.100265	191.176603	-9.777879	0.382534	0.000000	0.161300	0.000000	-0.550093	0.000000	-84.982801	413.694944	38.736113	0.924309	0.000000	0.243958	-0.000000	-0.766657	-0.000000	0.000000	0.000000	0.000000	0.000000	0.000000	0.000000	0.000000	0.000000	0.000000
1.528000	0.000000	0.000000	0.000000	0.000000	0.000000	0.000000	0.000000	0.000000	0.000000	0.000000	0.000000	0.000000	0.000000	0.000000	0.000000	0.000000	0.000000	0.000000	81.540030	182.954071	-9.886594	0.381215	0.000000	0.162037	0.000000	-0.538786	0.000000	-87.918857	418.954937	37.575562	0.923883	0.000000	0.245055	-0.000000	-0.779453	0.000000	0.000000	0.000000	0.000000	0.000000	0.000000	0.000000	0.000000	0.000000	0.000000
1.529000	0.000000	0.000000	0.000000	0.000000	0.000000	0.000000	0.000000	0.000000	0.000000	0.000000	0.000000	0.000000	0.000000	0.000000	0.000000	0.000000	0.000000	0.000000	78.893488	174.741044	-9.958860	0.385559	0.000000	0.160486	0.000000	-0.527241	0.000000	-90.673778	424.232921	36.315651	0.925185	0.000000	0.244526	-0.000000	-0.788056	0.000000	0.000000	0.000000	0.000000	0.000000	0.000000	0.000000	0.000000	0.000000	0.000000
1.530000	0.000000	0.000000	0.000000	0.000000	0.000000	0.000000	0.000000	0.000000	0.000000	0.000000	0.000000	0.000000	0.000000	0.000000	0.000000	0.000000	0.000000	0.000000	76.166719	166.556261	-9.994386	0.385334	0.000000	0.160986	0.000000	-0.515524	0.000000	-93.237116	429.532356	34.962950	0.924004	0.000000	0.245534	-0.000000	-0.792288	0.000000	0.000000	0.000000	0.000000	0.000000	0.000000	0.000000	0.000000	0.000000	0.000000
1.531000	0.000000	0.000000	0.000000	0.000000	0.000000	0.000000	0.000000	0.000000	0.000000	0.000000	0.000000	0.000000	0.000000	0.000000	0.000000	0.000000	0.000000	0.000000	73.366259	158.418198	-9.993216	0.384663	0.000000	0.160353	0.000000	-0.503735	0.000000	-95.601731	434.849793	33.525152	0.925202	0.000000	0.245326	-0.000000	-0.792044	0.000000	0.000000	0.000000	0.000000	0.000000	0.000000	0.000000	0.000000	0.000000	0.000000
1.532000	0.000000	0.000000	0.000000	0.000000	0.000000	0.000000	0.000000	0.000000	0.000000	0.000000	0.000000	0.000000	0.000000	0.000000	0.000000	0.000000	0.000000	0.000000	70.499077	150.345483	-9.955693	0.383869	0.000000	0.159815	0.000000	-0.492000	0.000000	-97.763853	440.174578	32.011216	0.927034	0.000000	0.244691	-0.000000	-0.787300	0.000000	0.000000	0.000000	0.000000	0.000000	0.000000	0.000000	0.000000	0.000000	0.000000
1.533000	0.000000	0.000000	0.000000	0.000000	0.000000	0.000000	0.000000	0.000000	0.000000	0.000000	0.000000	0.000000	0.000000	0.000000	0.000000	0.000000	0.000000	0.000000	67.572624	142.356951	-9.882436	0.382607	0.000000	0.161743	0.000000	-0.480435	0.000000	-99.723063	445.488882	30.431421	0.926818	0.000000	0.245009	-0.000000	-0.778134	0.000000	0.000000	0.000000	0.000000	0.000000	0.000000	0.000000	0.000000	0.000000	0.000000
1.534000	0.000000	0.000000	0.000000	0.000000	0.000000	0.000000	0.000000	0.000000	0.000000	0.000000	0.000000	0.000000	0.000000	0.000000	0.000000	0.000000	0.000000	0.000000	64.594919	134.471206	-9.774273	0.386893	0.000000	0.163965	0.000000	-0.469136	0.000000	-101.482215	450.768132	28.797237	0.924703	0.000000	0.246655	-0.000000	-0.764731	0.000000	0.000000	0.000000	0.000000	0.000000	0.000000	0.000000	0.000000	0.000000	0.000000
1.535000	0.000000	0.000000	0.000000	0.000000	0.000000	0.000000	0.000000	0.000000	0.000000	0.000000	0.000000	0.000000	0.000000	0.000000	0.000000	0.000000	0.000000	0.000000	61.574589	126.706139	-9.632196	0.384410	0.000000	0.160428	0.000000	-0.458185	0.000000	-103.047265	455.981832	27.121099	0.929092	0.000000	0.245136	-0.000000	-0.747368	0.000000	0.000000	0.000000	0.000000	0.000000	0.000000	0.000000	0.000000	0.000000	0.000000
1.536000	0.000000	0.000000	0.000000	0.000000	0.000000	0.000000	0.000000	0.000000	0.000000	0.000000	0.000000	0.000000	0.000000	0.000000	0.000000	0.000000	0.000000	0.000000	58.520833	119.078824	-9.457369	0.384735	0.000000	0.158555	0.000000	-0.447625	0.000000	-104.427057	461.094757	25.416137	0.930403	0.000000	0.245203	-0.000000	-0.726395	0.000000	0.000000	0.000000	0.000000	0.000000	0.000000	0.000000	0.000000	0.000000	0.000000
1.537000	0.000000	0.000000	0.000000	0.000000	0.000000	0.000000	0.000000	0.000000	0.000000	0.000000	0.000000	0.000000	0.000000	0.000000	0.000000	0.000000	0.000000	0.000000	55.443339	111.605832	-9.251135	0.388055	0.000000	0.159326	0.000000	-0.437436	0.000000	-105.632995	466.068394	23.695816	0.929414	0.000000	0.245908	-0.000000	-0.702223	0.000000	0.000000	0.000000	0.000000	0.000000	0.000000	0.000000	0.000000	0.000000	0.000000
1.538000	0.000000	0.000000	0.000000	0.000000	0.000000	0.000000	0.000000	0.000000	0.000000	0.000000	0.000000	0.000000	0.000000	0.000000	0.000000	0.000000	0.000000	0.000000	52.352193	104.303442	-9.015026	0.389773	0.000000	0.160434	0.000000	-0.427540	0.000000	-106.678518	470.862633	21.973435	0.929088	0.000000	0.245469	-0.000000	-0.675329	0.000000	0.000000	0.000000	0.000000	0.000000	0.000000	0.000000	0.000000	0.000000	0.000000
1.539000	0.000000	0.000000	0.000000	0.000000	0.000000	0.000000	0.000000	0.000000	0.000000	0.000000	0.000000	0.000000	0.000000	0.000000	0.000000	0.000000	0.000000	0.000000	49.257842	97.187548	-8.750786	0.386963	0.000000	0.158833	0.000000	-0.417842	0.000000	-107.578449	475.437510	20.261580	0.929162	0.000000	0.246113	-0.000000	-0.646277	0.000000	0.000000	0.000000	0.000000	0.000000	0.000000	0.000000	0.000000	0.000000	0.000000
